<svg xmlns="http://www.w3.org/2000/svg" width="860" height="170" viewBox="0 0 860 170">
<rect x="0" y="0" width="860" height="170" rx="0" fill="#1b1b1b" stroke="none" stroke-width="1" opacity="1"/>
<rect x="10" y="30" width="410" height="130" rx="0" fill="#000" stroke="none" stroke-width="1" opacity="1"/>
<text x="215.0" y="20.0" fill="#ddd" font-size="12" font-family="Segoe UI, Helvetica, Arial, sans-serif" text-anchor="middle" font-weight="normal" opacity="1">Distance text above, markers below</text>
<line x1="10.0" y1="130.0" x2="420.0" y2="130.0" stroke="#00a000" stroke-width="2" opacity="1"/>
<line x1="120.0" y1="130.0" x2="120.0" y2="40.0" stroke="#00a000" stroke-width="1" opacity="1"/>
<text x="120.0" y="125.0" fill="#ffff00" font-size="11" font-family="Segoe UI, Helvetica, Arial, sans-serif" text-anchor="middle" font-weight="normal" opacity="1">1NM</text>
<line x1="210.0" y1="130.0" x2="210.0" y2="40.0" stroke="#00a000" stroke-width="1" opacity="1"/>
<text x="210.0" y="125.0" fill="#ffff00" font-size="11" font-family="Segoe UI, Helvetica, Arial, sans-serif" text-anchor="middle" font-weight="normal" opacity="1">2NM</text>
<line x1="300.0" y1="130.0" x2="300.0" y2="40.0" stroke="#00a000" stroke-width="1" opacity="1"/>
<line x1="300.0" y1="130.0" x2="300.0" y2="40.0" stroke="#ff8000" stroke-width="2" stroke-dasharray="6 3" opacity="1"/>
<text x="300.0" y="125.0" fill="#ffff00" font-size="11" font-family="Segoe UI, Helvetica, Arial, sans-serif" text-anchor="middle" font-weight="normal" opacity="1">3NM</text>
<line x1="390.0" y1="130.0" x2="390.0" y2="40.0" stroke="#00a000" stroke-width="1" opacity="1"/>
<text x="390.0" y="125.0" fill="#ffff00" font-size="11" font-family="Segoe UI, Helvetica, Arial, sans-serif" text-anchor="middle" font-weight="normal" opacity="1">4NM</text>
<path d="M300,151 L307,138 L293,138 Z" fill="#ff8000" stroke="none" stroke-width="1" opacity="1"/>
<rect x="440" y="30" width="410" height="130" rx="0" fill="#000" stroke="none" stroke-width="1" opacity="1"/>
<text x="645.0" y="20.0" fill="#ddd" font-size="12" font-family="Segoe UI, Helvetica, Arial, sans-serif" text-anchor="middle" font-weight="normal" opacity="1">Distance text below, markers above</text>
<line x1="440.0" y1="130.0" x2="850.0" y2="130.0" stroke="#00a000" stroke-width="2" opacity="1"/>
<line x1="550.0" y1="130.0" x2="550.0" y2="40.0" stroke="#00a000" stroke-width="1" opacity="1"/>
<text x="550.0" y="146.0" fill="#ffff00" font-size="11" font-family="Segoe UI, Helvetica, Arial, sans-serif" text-anchor="middle" font-weight="normal" opacity="1">1NM</text>
<line x1="640.0" y1="130.0" x2="640.0" y2="40.0" stroke="#00a000" stroke-width="1" opacity="1"/>
<text x="640.0" y="146.0" fill="#ffff00" font-size="11" font-family="Segoe UI, Helvetica, Arial, sans-serif" text-anchor="middle" font-weight="normal" opacity="1">2NM</text>
<line x1="730.0" y1="130.0" x2="730.0" y2="40.0" stroke="#00a000" stroke-width="1" opacity="1"/>
<line x1="730.0" y1="130.0" x2="730.0" y2="40.0" stroke="#ff8000" stroke-width="2" stroke-dasharray="6 3" opacity="1"/>
<text x="730.0" y="146.0" fill="#ffff00" font-size="11" font-family="Segoe UI, Helvetica, Arial, sans-serif" text-anchor="middle" font-weight="normal" opacity="1">3NM</text>
<line x1="820.0" y1="130.0" x2="820.0" y2="40.0" stroke="#00a000" stroke-width="1" opacity="1"/>
<text x="820.0" y="146.0" fill="#ffff00" font-size="11" font-family="Segoe UI, Helvetica, Arial, sans-serif" text-anchor="middle" font-weight="normal" opacity="1">4NM</text>
<path d="M730,123 L737,110 L723,110 Z" fill="#ff8000" stroke="none" stroke-width="1" opacity="1"/>
</svg>
